# xmcd
# 
# Track frame offsets:
#     150
#     19947
#     37880
#     55877
#     78367
#     98402
#     113327
#     130992
#     146700
#     160372
#     177317
#     206112
# 
# Disc length: 4440
# 
# Revision: 3
# Processed by: cddbd v1.5.2PL0 Copyright (c) Steve Scherf et al.
# Submitted via: BonkEnc v1.0.6
# 
DISCID=9a11560c
DTITLE=Michel Jonasz - Où vont les rêves
DYEAR=2002
DGENRE=Blues
TTITLE0=Terre
TTITLE1=Où vont les rêves
TTITLE2=Vieux Style
TTITLE3=Le Lafontaine
TTITLE4=Le grand-père
TTITLE5=Doucement
TTITLE6=Mélancolique
TTITLE7=Modern hôtel
TTITLE8=Le Rythm and Blues
TTITLE9=Je pense à elle tous les jours
TTITLE10=Juste une bouffée d'air pur
TTITLE11=/
EXTD=YEAR: 2002
EXTT0=
EXTT1=
EXTT2=
EXTT3=
EXTT4=
EXTT5=
EXTT6=
EXTT7=
EXTT8=
EXTT9=
EXTT10=
EXTT11=
PLAYORDER=
